<svg width="180" height="50" viewBox="0 0 180 50" xmlns="http://www.w3.org/2000/svg">
  <!-- Infinity Strand Logo - Refined -->
  <g transform="translate(5, 5)">
    <!-- Outer infinity path - main strand -->
    <path d="M8 20 C8 10, 18 6, 25 14 C30 20, 30 20, 35 20 C40 20, 40 20, 45 14 C52 6, 62 10, 62 20 C62 30, 52 34, 45 26 C40 20, 40 20, 35 20 C30 20, 30 20, 25 26 C18 34, 8 30, 8 20 Z" 
          stroke="#6b7c5e" stroke-width="2.2" fill="none" stroke-linecap="round"/>
    
    <!-- Inner infinity path - DNA second strand, slightly offset -->
    <path d="M10 20 C10 12, 19 8, 26 15 C30 20, 30 20, 35 20 C40 20, 40 20, 44 15 C51 8, 60 12, 60 20 C60 28, 51 32, 44 25 C40 20, 40 20, 35 20 C30 20, 30 20, 26 25 C19 32, 10 28, 10 20 Z" 
          stroke="#6b7c5e" stroke-width="1.2" fill="none" stroke-linecap="round" opacity="0.5"/>
    
    <!-- DNA connecting bonds -->
    <line x1="14" y1="16" x2="16" y2="24" stroke="#6b7c5e" stroke-width="0.8" opacity="0.4"/>
    <line x1="20" y1="12" x2="22" y2="18" stroke="#6b7c5e" stroke-width="0.8" opacity="0.4"/>
    <line x1="28" y1="16" x2="29" y2="22" stroke="#6b7c5e" stroke-width="0.8" opacity="0.4"/>
    <line x1="41" y1="16" x2="42" y2="22" stroke="#6b7c5e" stroke-width="0.8" opacity="0.4"/>
    <line x1="48" y1="12" x2="50" y2="18" stroke="#6b7c5e" stroke-width="0.8" opacity="0.4"/>
    <line x1="54" y1="16" x2="56" y2="24" stroke="#6b7c5e" stroke-width="0.8" opacity="0.4"/>
    
    <!-- Gold accent at crossing point -->
    <circle cx="35" cy="20" r="3.5" fill="#c9a96e"/>
    <circle cx="35" cy="20" r="1.8" fill="#f5f0eb"/>
    <circle cx="35" cy="20" r="5" stroke="#c9a96e" stroke-width="0.6" fill="none" opacity="0.3"/>
  </g>
  
  <!-- PeakBody text -->
  <text x="78" y="32" font-family="'Montserrat', 'Helvetica Neue', sans-serif" font-weight="600" font-size="20" fill="#2d2d2d" letter-spacing="0.5">PeakBody</text>
</svg>